<svg width="279" height="279" viewBox="0 0 279 279" fill="none" xmlns="http://www.w3.org/2000/svg">
<path d="M197.408 40.6433C197.408 39.1034 196.796 37.6266 195.707 36.5378C194.618 35.4489 193.141 34.8372 191.602 34.8372H162.571C147.953 34.109 133.64 39.1963 122.761 48.9876C111.882 58.7789 105.32 72.4782 104.51 87.0922V118.445H75.4794C73.9395 118.445 72.4627 119.057 71.3738 120.146C70.285 121.235 69.6733 122.711 69.6733 124.251V154.443C69.6733 155.983 70.285 157.46 71.3738 158.549C72.4627 159.637 73.9395 160.249 75.4794 160.249H104.51V238.051C104.51 239.591 105.122 241.068 106.21 242.156C107.299 243.245 108.776 243.857 110.316 243.857H145.153C146.693 243.857 148.169 243.245 149.258 242.156C150.347 241.068 150.959 239.591 150.959 238.051V160.249H181.383C182.674 160.268 183.934 159.855 184.965 159.077C185.995 158.299 186.737 157.2 187.073 155.953L195.434 125.761C195.665 124.903 195.696 124.003 195.524 123.132C195.353 122.26 194.984 121.439 194.445 120.732C193.907 120.026 193.214 119.452 192.419 119.055C191.624 118.659 190.748 118.45 189.86 118.445H150.959V87.0922C151.248 84.2179 152.597 81.5544 154.745 79.622C156.892 77.6895 159.682 76.6267 162.571 76.6412H191.602C193.141 76.6412 194.618 76.0295 195.707 74.9406C196.796 73.8518 197.408 72.3749 197.408 70.8351V40.6433Z" fill="white"/>
</svg>
