<svg width="279" height="279" viewBox="0 0 279 279" fill="none" xmlns="http://www.w3.org/2000/svg">
<path d="M93.8268 232.241C110.998 232.816 128.11 229.943 144.151 223.791C160.193 217.64 174.838 208.335 187.223 196.427C199.607 184.519 209.479 170.25 216.254 154.462C223.03 138.673 226.571 121.687 226.671 104.507C234.54 94.7693 240.383 83.5567 243.857 71.5285C244.116 70.5781 244.095 69.5731 243.796 68.6344C243.498 67.6957 242.934 66.8633 242.173 66.2375C241.413 65.6117 240.487 65.2192 239.508 65.1072C238.53 64.9952 237.539 65.1685 236.657 65.6062C232.54 67.5879 227.906 68.228 223.406 67.4364C218.906 66.6448 214.768 64.4613 211.575 61.1936C207.498 56.7296 202.567 53.1293 197.074 50.6059C191.58 48.0825 185.636 46.6875 179.594 46.5034C173.552 46.3193 167.534 47.3499 161.897 49.5342C156.26 51.7185 151.119 55.012 146.778 59.2195C140.835 64.9752 136.482 72.1705 134.142 80.1061C131.802 88.0417 131.555 96.4477 133.424 104.507C94.5235 106.83 67.8155 88.3662 46.449 63.0515C45.8071 62.3246 44.9674 61.8004 44.0325 61.5428C43.0976 61.2852 42.1079 61.3054 41.1843 61.6009C40.2607 61.8965 39.4431 62.4546 38.8314 63.2071C38.2198 63.9596 37.8405 64.874 37.7398 65.8385C33.6694 88.4175 36.6056 111.701 46.1542 132.563C55.7028 153.425 71.4065 170.865 91.156 182.541C77.9139 197.728 59.3177 207.213 39.2494 209.017C38.1743 209.195 37.1818 209.705 36.4108 210.476C35.6399 211.246 35.1291 212.238 34.9499 213.313C34.7708 214.388 34.9322 215.492 35.4116 216.471C35.8911 217.45 36.6645 218.254 37.6237 218.771C55.0829 227.496 74.3094 232.104 93.8268 232.241Z" fill="#ffffff"/>
</svg>
