<svg width="2672" height="1600" viewBox="0 0 2672 1600" fill="none" xmlns="http://www.w3.org/2000/svg">
<mask id="mask0_319_4" style="mask-type:luminance" maskUnits="userSpaceOnUse" x="-1" y="0" width="2673" height="1600">
<path d="M2672 1600L-0.000213861 1600L-0.000353738 0.000220481L2672 -1.3113e-05L2672 1600Z" fill="#303643"/>
</mask>
<g mask="url(#mask0_319_4)">
<path fill-rule="evenodd" clip-rule="evenodd" d="M2646.27 124.887C2479.34 143.984 2322.46 304.397 2175.62 606.12C1955.36 1058.71 2003.06 1225.25 1637.37 1070.16C1271.68 915.077 1302.83 1016.66 1067.7 1375.04C832.565 1733.42 679.945 1651.4 536.605 1215.87C393.265 780.335 259.114 635.398 14.701 475.458C-148.241 368.836 -154.422 -2547.38 -3.84381 -8273.19L2646.27 -8273.19L2646.27 124.88L2646.27 124.887Z" fill="#303643"/>
</g>
</svg>
