<svg width="2672" height="1500" viewBox="0 0 2672 1500" fill="none" xmlns="http://www.w3.org/2000/svg">
<mask id="mask0_319_4" style="mask-type:luminance" maskUnits="userSpaceOnUse" x="0" y="0" width="2673" height="1500">
<path d="M2672 1500L0.00027442 1500L0.000143286 0.000281516L2672 4.79221e-05L2672 1500Z" fill="#303643"/>
</mask>
<g mask="url(#mask0_319_4)">
<path fill-rule="evenodd" clip-rule="evenodd" d="M2672 294.501C2605.5 414 2601.53 563.088 2534 863C2444.5 1260.5 2202.5 1212 1862.5 1052.5C1254 611.499 1069 1052.5 884 1269.5C641 1639.5 182.932 1501 107 1052.5C24.6348 565.999 107 1052.5 16.1964 375.479C-148.246 268.858 -154.484 -2647.3 -2.51942 -8373L2672 -8373L2672 159.501L2672 294.501Z" fill="#303643"/>
</g>
</svg>
