<svg width="2672" height="1258" viewBox="0 0 2672 1258" fill="none" xmlns="http://www.w3.org/2000/svg">
<mask id="mask0_319_4" style="mask-type:luminance" maskUnits="userSpaceOnUse" x="-1" y="0" width="2673" height="1258">
<path d="M2672 1258L-0.000213861 1258L-0.000323839 0.000270787L2672 3.71933e-05L2672 1258Z" fill="#303643"/>
</mask>
<g mask="url(#mask0_319_4)">
<path fill-rule="evenodd" clip-rule="evenodd" d="M2646.27 98.192C2479.34 113.207 2322.46 239.332 2175.62 476.562C1955.36 832.41 2003.06 963.354 1637.37 841.415C1271.68 719.479 1302.83 799.352 1067.7 1081.12C832.565 1362.9 679.945 1298.41 536.605 955.977C393.265 613.538 259.114 499.581 14.701 373.829C-148.241 289.997 -154.422 -2002.88 -3.84363 -6504.8L2646.27 -6504.8L2646.27 98.1865L2646.27 98.192Z" fill="#303643"/>
</g>
</svg>
